<svg width="29" height="32" viewBox="0 0 29 32" fill="none" xmlns="http://www.w3.org/2000/svg">
<g clip-path="url(#clip0_760_5514)">
<path d="M27.3888 9.62677L17.7222 1.22083C16.8361 0.434643 15.6889 0 14.5 0C13.3112 0 12.164 0.434643 11.2779 1.22083L1.61125 9.62677C1.09952 10.0807 0.691153 10.6377 0.413354 11.2604C0.135556 11.8832 -0.00530464 12.5575 0.000152723 13.2385V27.2057C0.000152723 28.4773 0.509374 29.6967 1.41579 30.5958C2.32221 31.4949 3.55158 32 4.83345 32H24.1666C25.4485 32 26.6779 31.4949 27.5843 30.5958C28.4907 29.6967 28.9999 28.4773 28.9999 27.2057V13.2225C29.0031 12.5442 28.8611 11.8729 28.5834 11.2531C28.3057 10.6333 27.8985 10.079 27.3888 9.62677ZM17.7222 28.8038H11.2779V20.8134C11.2779 20.3895 11.4476 19.9831 11.7497 19.6834C12.0519 19.3837 12.4617 19.2153 12.8889 19.2153H16.1111C16.5384 19.2153 16.9482 19.3837 17.2504 19.6834C17.5525 19.9831 17.7222 20.3895 17.7222 20.8134V28.8038ZM25.7777 27.2057C25.7777 27.6296 25.608 28.0361 25.3059 28.3358C25.0037 28.6355 24.5939 28.8038 24.1666 28.8038H20.9444V20.8134C20.9444 19.5419 20.4352 18.3224 19.5288 17.4233C18.6224 16.5242 17.393 16.0191 16.1111 16.0191H12.8889C11.6071 16.0191 10.3777 16.5242 9.47129 17.4233C8.56487 18.3224 8.05565 19.5419 8.05565 20.8134V28.8038H4.83345C4.40616 28.8038 3.99637 28.6355 3.69423 28.3358C3.39209 28.0361 3.22235 27.6296 3.22235 27.2057V13.2225C3.22264 12.9956 3.27164 12.7713 3.36609 12.5647C3.46054 12.358 3.59827 12.1737 3.77013 12.0239L13.4367 3.63394C13.7307 3.37774 14.1087 3.23644 14.5 3.23644C14.8914 3.23644 15.2694 3.37774 15.5634 3.63394L25.23 12.0239C25.4018 12.1737 25.5396 12.358 25.634 12.5647C25.7285 12.7713 25.7775 12.9956 25.7777 13.2225V27.2057Z" fill="white"/>
</g>
<defs>
<clipPath id="clip0_760_5514">
<rect width="29" height="32" fill="white"/>
</clipPath>
</defs>
</svg>
